<?xml version="1.0" encoding="UTF-8" standalone="no"?>
<!-- Created with Inkscape (http://www.inkscape.org/) -->

<svg
   xmlns:dc="http://purl.org/dc/elements/1.1/"
   xmlns:cc="http://creativecommons.org/ns#"
   xmlns:rdf="http://www.w3.org/1999/02/22-rdf-syntax-ns#"
   xmlns:svg="http://www.w3.org/2000/svg"
   xmlns="http://www.w3.org/2000/svg"
   xmlns:sodipodi="http://sodipodi.sourceforge.net/DTD/sodipodi-0.dtd"
   xmlns:inkscape="http://www.inkscape.org/namespaces/inkscape"
   width="210mm"
   height="297mm"
   viewBox="0 0 210 297"
   version="1.1"
   id="svg8"
   inkscape:version="0.92.4 (5da689c313, 2019-01-14)"
   sodipodi:docname="drawing-1.svg">
  <defs
     id="defs2" />
  <sodipodi:namedview
     id="base"
     pagecolor="#ffffff"
     bordercolor="#666666"
     borderopacity="1.0"
     inkscape:pageopacity="0.0"
     inkscape:pageshadow="2"
     inkscape:zoom="0.98994949"
     inkscape:cx="272.29824"
     inkscape:cy="615.80061"
     inkscape:document-units="mm"
     inkscape:current-layer="layer1"
     showgrid="false"
     inkscape:window-width="1920"
     inkscape:window-height="1053"
     inkscape:window-x="-9"
     inkscape:window-y="-9"
     inkscape:window-maximized="1" />
  <metadata
     id="metadata5">
    <rdf:RDF>
      <cc:Work
         rdf:about="">
        <dc:format>image/svg+xml</dc:format>
        <dc:type
           rdf:resource="http://purl.org/dc/dcmitype/StillImage" />
        <dc:title></dc:title>
      </cc:Work>
    </rdf:RDF>
  </metadata>
  <g
     inkscape:label="Layer 1"
     inkscape:groupmode="layer"
     id="layer1">
    <path
       style="fill:#000000;stroke-width:0.14066306"
       d="m 70.170294,217.21274 c -2.883963,-0.18337 -5.224933,-0.67032 -7.885567,-1.64031 -2.599464,-0.94768 -3.070172,-1.3943 -2.929411,-2.77955 0.11255,-1.10764 0.367192,-1.44169 1.098967,-1.44169 0.331287,0 1.853655,0.40723 3.583691,0.95865 4.427714,1.41123 5.216899,1.53803 9.03335,1.45148 3.917653,-0.0888 5.770896,-0.44301 6.483091,-1.23896 0.366418,-0.40952 0.371885,-0.44653 0.278816,-1.88756 -0.108742,-1.68372 0.03461,-2.12632 0.810942,-2.50386 0.466351,-0.22678 1.347829,-0.22319 4.176321,0.017 1.312852,0.11152 1.436712,0.002 1.021982,-0.90477 -0.275769,-0.60284 -0.319921,-0.89497 -0.26648,-1.76311 0.0551,-0.89508 0.15191,-1.20105 0.69247,-2.18848 1.09726,-2.00436 3.09355,-4.02287 4.76751,-4.82058 2.88724,-1.37588 7.77972,-2.50186 9.097134,-2.09365 0.82761,0.25644 1.04297,0.69997 0.82167,1.69215 -0.22049,0.98858 -0.72338,1.94052 -1.193984,2.26016 -0.19944,0.13545 -1.30815,0.43639 -2.46378,0.66875 -4.08626,0.82159 -5.63422,1.3547 -6.75549,2.32658 -0.66913,0.57997 -3.54526,4.49376 -3.54526,4.82433 0,0.25782 0.66522,0.44427 2.17577,0.6098 0.7579,0.083 1.90515,0.23983 2.54945,0.34841 0.6443,0.10858 2.73257,0.41228 4.6406,0.67489 3.08803,0.42502 3.787964,0.4767 6.371224,0.47045 3.62519,-0.009 4.82274,-0.12114 5.1068,-0.47931 0.31592,-0.39832 0.1329,-1.08206 -0.5032,-1.87988 -0.69561,-0.87246 -0.79609,-1.11779 -0.53976,-1.31785 0.29265,-0.2284 2.10686,0.70076 2.99015,1.53141 0.89575,0.84237 1.10572,1.45466 0.88375,2.57712 -0.19916,1.00712 -0.56575,1.72754 -1.04675,2.05709 -0.53706,0.36794 -3.45273,1.01563 -5.43451,1.20723 -2.79038,0.26976 -9.537714,-0.089 -14.365024,-0.76387 -4.12519,-0.57669 -5.985198,-0.78011 -6.348581,-0.69434 -0.481396,0.11362 -0.686412,0.6248 -0.686412,1.71148 0,1.10143 -0.328762,1.67455 -1.237226,2.15683 -1.539435,0.81723 -6.319313,1.17582 -11.382253,0.85391 z M 59.536207,209.3534 c -0.198603,-0.18677 -0.08704,-0.68183 0.380628,-1.68905 0.714567,-1.53898 1.238007,-2.15648 2.731629,-3.22252 2.966472,-2.11726 3.962824,-2.43887 8.392139,-2.70883 1.635456,-0.0997 3.430468,-0.28428 3.988916,-0.41022 1.907634,-0.43023 3.234751,-0.0963 4.058182,1.0211 0.492393,0.66818 0.424276,1.33228 -0.183448,1.78846 -0.376285,0.28245 -0.491848,0.29209 -2.641796,0.22033 -2.631355,-0.0878 -8.661091,0.10966 -9.92771,0.32516 -1.512909,0.2574 -3.108507,0.9172 -3.90041,1.61289 -0.646741,0.56817 -1.964094,2.13503 -2.355484,2.80163 -0.174131,0.29658 -0.392936,0.40183 -0.542646,0.26105 z m 6.427594,-11.85527 c -0.678116,-0.10194 -1.547276,-0.18794 -1.931468,-0.19112 -0.815368,-0.007 -1.146761,-0.14468 -1.839871,-0.7658 -0.448766,-0.40215 -0.718086,-0.49626 -2.320824,-0.81094 -0.997229,-0.19579 -2.106707,-0.48771 -2.465506,-0.64869 -1.583984,-0.7107 -4.267562,-3.84145 -4.970011,-5.79817 -0.302646,-0.84305 -0.535709,-2.57984 -0.539737,-4.02214 -0.0024,-0.85474 0.03217,-0.95757 0.46884,-1.39522 0.25928,-0.25985 1.026239,-0.75715 1.704355,-1.10509 2.31086,-1.18572 5.00564,-3.12803 7.760255,-5.59335 3.282608,-2.93786 3.148629,-2.78967 3.223792,-3.56578 0.08272,-0.85412 -0.123257,-1.08634 -1.194553,-1.34678 -0.500191,-0.12159 -1.037897,-0.3619 -1.267301,-0.56636 -0.780842,-0.69595 -1.215806,-2.36818 -1.622728,-6.23859 -0.118317,-1.12536 -0.3448,-2.47579 -0.503296,-3.00096 -0.546936,-1.81223 -0.866306,-3.28211 -1.244802,-5.72911 -0.293017,-1.89437 -0.531454,-2.8852 -1.043641,-4.33684 -1.006026,-2.85128 -1.345439,-3.20261 -3.257728,-3.37214 -0.666945,-0.0591 -1.791581,-0.14806 -2.499193,-0.19762 l -1.286566,-0.0901 -1.130169,1.08737 c -0.621593,0.59806 -1.61875,1.39742 -2.215905,1.77636 -1.676009,1.06356 -1.696416,1.10139 -1.693724,3.13937 0.0016,1.20984 0.09007,2.10559 0.297934,3.01667 0.509108,2.23139 1.541576,7.34154 1.936993,9.58705 0.35421,2.0115 0.97802,4.39133 1.95646,7.46388 0.792575,2.48889 1.212247,4.20033 1.11726,4.55624 -0.124548,0.46666 -0.687105,0.59805 -1.214272,0.2836 -1.267311,-0.75594 -1.591731,-1.30694 -2.354248,-3.99848 -0.836479,-2.95261 -1.321661,-4.16987 -2.75482,-6.91149 -0.705927,-1.35043 -1.352399,-2.70087 -1.436603,-3.00096 -0.244692,-0.87206 -0.426126,-2.27406 -0.671492,-5.18883 -0.126062,-1.49754 -0.290939,-3.0911 -0.366393,-3.54125 -0.342261,-2.04188 -0.01604,-3.40771 1.063657,-4.45327 0.953225,-0.9231 4.894697,-4.37507 5.541858,-4.8536 0.868202,-0.64198 1.975918,-0.99808 3.976782,-1.27843 l 1.80101,-0.25234 1.408028,0.33565 c 0.774414,0.1846 1.976478,0.59215 2.67125,0.90566 1.519283,0.68556 1.90516,0.64631 2.226864,-0.22649 0.110308,-0.29928 0.29729,-0.80413 0.415515,-1.12191 0.118225,-0.31777 0.617872,-1.15923 1.110326,-1.86992 2.658203,-3.83619 2.948979,-4.46646 3.095426,-6.70956 0.0905,-1.38612 -0.0691,-2.49019 -0.598821,-4.14247 -0.206001,-0.64255 -0.301467,-0.89975 -0.973022,-2.62144 -0.499862,-1.28152 -0.53196,-2.00745 -0.104813,-2.37039 0.254815,-0.21652 0.532101,-0.25986 1.662582,-0.25986 1.853227,0 1.939251,-0.0814 1.615218,-1.52895 -0.367057,-1.63973 -0.532182,-5.36869 -0.322477,-7.28245 0.126932,-1.15838 0.02803,-1.53211 -1.177905,-4.45119 -0.737414,-1.78498 -0.846303,-2.83724 -0.342619,-3.31091 0.159557,-0.15004 0.346573,-0.27281 0.415593,-0.27281 0.392117,0 0.991464,0.77157 1.987919,2.55916 2.69781,4.83973 4.899355,7.68406 8.577274,11.08158 4.319948,3.9906 8.052091,6.71138 11.104982,8.09566 0.83524,0.37873 1.68294,0.88262 2.06699,1.22867 0.55758,0.50243 0.65105,0.6645 0.65105,1.12895 0,1.39378 -2.22394,3.20018 -4.58351,3.72296 -0.693442,0.15364 -0.851982,0.13255 -2.538398,-0.33767 -2.209158,-0.61598 -4.476333,-1.79831 -6.832297,-3.56302 -3.124209,-2.34017 -4.349644,-2.9206 -4.553497,-2.15679 -0.104785,0.39261 -0.09058,0.46666 0.444434,2.31641 0.38263,1.32289 0.391972,1.44024 0.309529,3.88761 -0.144023,4.27545 -0.608015,5.41483 -3.197821,7.8526 -1.339079,1.26047 -1.566116,1.4154 -2.764362,1.88638 -0.718005,0.28221 -1.645126,0.56597 -2.060268,0.63057 -1.24634,0.19394 -1.638545,0.51529 -1.638545,1.34249 0,0.7357 2.509845,7.78711 2.859201,8.03293 0.13328,0.0938 0.44928,0.17051 0.702221,0.17051 0.531508,0 2.160679,-0.66333 3.110543,-1.26647 0.783159,-0.4973 4.035218,-3.46725 5.259944,-4.80366 1.477386,-1.61212 3.261105,-3.04665 4.092122,-3.29104 1.013006,-0.29792 6.823614,-0.41784 9.650084,-0.19917 3.4391,0.26606 4.38518,0.45714 5.42853,1.0964 1.52315,0.93324 1.86284,0.68495 1.54765,-1.13119 -0.34333,-1.97827 -2.75189,-9.34266 -3.53914,-10.82126 -0.66354,-1.24623 -1.01057,-2.45951 -0.90065,-3.14882 0.11969,-0.75059 0.84617,-1.53376 1.42274,-1.53376 0.63395,0 2.33331,0.55972 2.83644,0.93423 1.17276,0.87298 1.1294,0.86104 2.77783,0.76498 0.83767,-0.0488 2.589214,-0.23341 3.892304,-0.41022 1.96902,-0.26717 2.81441,-0.46234 5.00428,-1.15532 3.95599,-1.25186 5.4598,-1.98729 8.93326,-4.36881 0.93827,-0.64331 1.34194,-0.67301 1.90832,-0.14038 0.88655,0.83371 0.41864,1.36487 -2.62209,2.97655 -5.91153,3.13331 -9.25258,4.38049 -12.90958,4.81903 -0.75789,0.0909 -1.49222,0.22008 -1.63183,0.2871 -0.4949,0.23757 -0.27083,0.6128 0.83212,1.39348 0.67765,0.47965 1.19343,0.96676 1.37181,1.29557 0.32554,0.60009 0.5143,0.69678 1.3617,0.69749 0.77875,6.8e-4 1.431,0.37988 1.75386,1.0197 0.38973,0.77236 0.21103,1.32981 -0.72076,2.24849 -0.43068,0.42461 -0.88277,0.99648 -1.00467,1.27081 -0.34039,0.76613 -0.27935,2.09489 0.15572,3.39006 0.40454,1.20428 0.77638,3.21096 0.78025,4.21069 0.005,1.27608 -0.93408,2.16326 -1.2857,1.21471 -0.0891,-0.24034 -0.16336,-0.62731 -0.16504,-0.85995 -0.005,-0.74713 -0.67142,-2.23408 -1.61125,-3.59728 -1.11906,-1.62317 -1.63811,-3.08261 -1.52905,-4.29926 0.0389,-0.43429 0.25054,-1.3407 0.47025,-2.01425 l 0.39947,-1.22464 -1.22295,-1.12312 c -0.796204,-0.7312 -1.389494,-1.42062 -1.700194,-1.97566 -0.47624,-0.85076 -0.71938,-1.01174 -1.01765,-0.67376 -0.19661,0.22278 0.0202,3.33688 0.34367,4.93649 0.12138,0.60019 0.28422,1.64371 0.36187,2.31892 0.0776,0.67522 0.27463,2.23317 0.43773,3.46212 0.38027,2.8653 0.28202,3.63891 -0.58823,4.63176 -0.48242,0.55038 -0.53733,0.93704 -0.21603,1.52134 0.37178,0.6761 0.73959,0.8264 1.80748,0.73861 1.142124,-0.0939 1.799064,0.0993 3.045954,0.89555 0.96874,0.61866 1.23338,0.96475 1.10513,1.44528 -0.1979,0.74151 -1.05909,0.76571 -2.8778,0.0809 -1.07554,-0.405 -1.496034,-0.42912 -1.735984,-0.0996 -0.24205,0.33243 -0.0818,1.50751 0.40437,2.96569 0.791444,2.37363 0.791714,2.46393 0.0107,3.57713 -0.69388,0.98904 -0.91846,1.75669 -0.74887,2.55974 0.0529,0.25075 0.32757,1.45362 0.61026,2.67304 0.28402,1.22517 0.474554,2.36486 0.425854,2.54733 -0.0485,0.18161 -0.546984,0.71371 -1.107814,1.18243 -0.91801,0.76726 -1.34183,1.22415 -2.43514,2.62514 -0.41464,0.53133 -0.88914,0.78528 -1.18708,0.63533 -0.12244,-0.0616 -0.55863,-0.42803 -0.96931,-0.81424 l -0.74669,-0.70219 -1.28137,0.11035 c -2.13107,0.18352 -6.61268,0.10355 -8.678998,-0.15487 -2.550241,-0.31894 -7.144952,-1.24868 -8.513044,-1.7226 -2.661036,-0.92181 -3.949033,-1.92505 -3.279642,-2.55455 0.303655,-0.28556 1.098916,-0.17946 2.878699,0.38406 1.802037,0.57056 3.422885,0.96435 5.418201,1.31636 1.624594,0.2866 8.564374,0.41186 10.486934,0.18928 1.4617,-0.16922 4.50939,-0.83228 5.35779,-1.16563 0.78887,-0.30997 0.79186,-0.4025 0.13613,-4.22068 -0.47478,-2.76455 -0.47091,-3.01237 0.0619,-3.96487 0.52969,-0.94697 0.55555,-1.59511 0.14327,-3.59201 -0.41951,-2.03196 -0.56591,-2.20531 -1.86249,-2.20531 -0.96709,0 -1.1396,0.0802 -1.32819,0.61761 -0.23093,0.65802 -1.10857,0.95108 -2.84823,0.95108 -1.58494,0 -1.93714,-0.1889 -1.93714,-1.03894 0,-0.49519 -0.0285,-0.52653 -0.61647,-0.67688 -0.43613,-0.11153 -1.99554,-0.13652 -5.330646,-0.0854 -5.36991,0.0823 -9.041378,0.37285 -9.895321,0.78307 -0.490288,0.23553 -1.833506,1.19382 -4.494762,3.20669 -1.519819,1.14953 -1.498561,1.09304 -1.29797,3.44868 0.225366,2.64663 0.213656,3.31997 -0.0693,3.98502 -0.350657,0.82415 -0.150039,1.10881 1.192569,1.69217 1.948935,0.8468 3.480389,1.92002 5.828668,4.08464 1.218396,1.12311 2.45371,2.37984 2.745143,2.79273 0.291432,0.4129 0.872453,1.19975 1.291157,1.74856 0.927974,1.21632 1.875205,3.41763 2.110327,4.90426 0.130543,0.82541 0.128644,1.29308 -0.0084,2.05989 -0.323643,1.81133 -0.03791,1.94697 2.427081,1.15218 2.111857,-0.68094 5.945764,-2.38995 6.901264,-3.07633 0.39097,-0.28085 0.97553,-0.63762 1.29902,-0.79282 0.32349,-0.1552 1.3313,-0.96506 2.23958,-1.79968 1.71199,-1.57318 2.88363,-2.92956 3.32646,-3.85097 0.25436,-0.52925 0.37249,-0.68189 1.15786,-1.496 0.4893,-0.5072 1.62345,-0.9437 2.13704,-0.82248 0.23467,0.0554 0.48555,0.29505 0.695284,0.66421 0.74125,1.30469 0.21048,4.51248 -1.133404,6.84985 -1.2887,2.24141 -2.53254,3.61872 -4.51445,4.9989 -1.48021,1.0308 -1.76065,1.35471 -1.40992,1.62845 0.17846,0.13928 0.47925,0.14215 1.50017,0.0143 1.85003,-0.23163 2.29694,-0.20511 2.99123,0.17752 0.73014,0.40239 0.84118,0.62127 0.64939,1.27999 -0.41223,1.4158 -0.94634,1.71617 -4.33195,2.43615 -2.63653,0.56068 -3.76096,0.61811 -4.59624,0.23477 -0.54895,-0.25194 -0.57515,-0.29299 -0.56056,-0.87813 0.008,-0.33761 0.0654,-0.84096 0.12659,-1.11856 0.10312,-0.46768 0.0835,-0.51128 -0.26726,-0.59407 -0.20819,-0.0491 -0.95053,-0.009 -1.64963,0.0899 -2.444283,0.34469 -5.788541,0.18214 -7.60802,-0.36979 -0.628814,-0.19075 -1.361327,-0.79146 -1.785949,-1.46461 -0.07978,-0.12647 -0.485827,-0.34584 -0.902331,-0.4875 -0.892504,-0.30355 -1.537566,-0.78039 -2.321771,-1.71627 -0.931042,-1.11113 -2.789855,-2.91268 -3.101114,-3.00559 -0.757557,-0.22611 -1.435037,0.93467 -1.435037,2.45877 0,0.73669 0.0705,0.94677 0.588955,1.75516 1.127504,1.75803 1.242453,2.50275 0.571457,3.70232 -0.495214,0.88532 -0.523604,1.05703 -0.21464,1.29817 0.262261,0.20468 2.206958,-0.004 3.971609,-0.42671 0.916711,-0.21946 1.187048,-0.35797 1.850772,-0.94828 0.897987,-0.79867 1.349578,-0.85196 1.848065,-0.21807 0.269718,0.34298 0.302304,0.56082 0.285652,1.9097 -0.03594,2.91171 -0.747821,3.91025 -2.190083,3.07201 -0.461839,-0.26843 -0.625656,-0.28457 -2.024427,-0.19953 -0.837059,0.0509 -2.283102,0.18183 -3.213431,0.29097 -2.041304,0.23947 -3.597389,0.23599 -5.245268,-0.0117 z m 47.359319,-35.26259 c -2.60256,-0.20523 -5.26896,-0.87817 -5.94251,-1.49975 -0.26632,-0.24577 -0.26928,-0.27873 -0.0441,-0.49052 0.21419,-0.20143 0.78655,-0.23046 5.07219,-0.2572 5.1257,-0.032 6.59207,-0.14446 8.81266,-0.67599 1.80562,-0.4322 4.57407,-1.35409 6.09918,-2.031 0.6091,-0.27034 0.51582,-0.64003 -0.5745,-2.27673 -1.39121,-2.08837 -1.66792,-2.99463 -2.62065,-8.58308 -0.3895,-2.28469 -0.43146,-2.76405 -0.29746,-3.39787 0.31908,-1.50919 1.49823,-2.71232 2.95969,-3.01989 0.95406,-0.20079 1.69569,-0.0287 2.65975,0.61722 1.90275,1.27481 1.95415,1.29927 2.721,1.29481 0.40516,-0.002 1.45466,-0.12174 2.33222,-0.26529 0.87756,-0.14354 3.09685,-0.42547 4.93175,-0.62649 3.65675,-0.40062 4.25439,-0.36716 4.93881,0.27647 0.63057,0.59298 0.64207,1.81634 0.0252,2.67719 -0.45566,0.63585 -1.10276,0.94729 -2.54867,1.2266 -2.03601,0.39331 -2.26457,0.52577 -2.50559,1.45209 -0.22049,0.84742 -0.43769,6.72625 -0.26656,7.21494 0.19071,0.54462 -0.20558,1.61727 -0.73105,1.97877 -0.21621,0.14874 -1.25635,0.41433 -2.57607,0.65779 -1.26217,0.23284 -2.63363,0.57952 -3.19114,0.80667 -0.53773,0.2191 -1.14087,0.44001 -1.34032,0.49093 -0.96322,0.2459 -1.15282,0.37493 -1.24738,0.84895 -0.11894,0.59623 -0.64582,0.93107 -2.62331,1.66714 -3.88713,1.44688 -9.78132,2.25033 -14.04316,1.91424 z M 48.884743,145.17617 c -0.584934,-0.1571 -0.878424,-0.56463 -0.998139,-1.386 -0.113014,-0.77539 0.0085,-0.97227 1.533908,-2.48418 1.553655,-1.53996 2.460854,-2.76104 3.395007,-4.56965 1.020026,-1.97486 3.329281,-5.61999 4.130479,-6.51991 1.201458,-1.34949 2.675267,-1.89998 3.360795,-1.25531 0.159557,0.15005 0.290103,0.32872 0.290103,0.39705 0,0.0683 -0.435503,0.91235 -0.967782,1.8756 -1.98993,3.60112 -2.80111,5.24553 -3.014558,6.11105 -0.300183,1.21723 -0.533874,1.70338 -1.497825,3.11596 -0.998414,1.46309 -2.779315,3.20477 -4.165759,4.07402 -1.17455,0.73641 -1.424037,0.81385 -2.066229,0.64137 z m 60.449457,-1.48305 c -0.39849,-0.37474 -0.37992,-1.03093 0.0363,-1.28133 0.63551,-0.38235 2.84826,-0.9133 7.45383,-1.78857 2.56387,-0.48725 4.77187,-0.88591 4.90665,-0.88591 0.13478,0 0.44426,0.18733 0.68773,0.4163 0.40482,0.38069 0.43481,0.47036 0.35057,1.04829 -0.1172,0.80414 -0.42021,1.23612 -1.03707,1.4785 -0.28334,0.11133 -1.72763,0.27872 -3.43369,0.39796 -2.93614,0.20521 -5.61561,0.50492 -6.71598,0.7512 -1.00389,0.2247 -1.92363,0.16888 -2.2483,-0.13644 z M 81.890419,127.72713 c -0.377062,-0.3546 -0.429593,-0.48678 -0.3581,-0.90108 0.132895,-0.77014 0.403673,-1.03338 2.300208,-2.23625 2.442249,-1.54897 3.926239,-2.63819 4.514339,-3.31343 1.50059,-1.72292 2.4638,-5.00604 2.46773,-8.41132 0.002,-1.87351 -1.22646,-8.38699 -1.94947,-10.33501 -0.46336,-1.24843 -2.13308,-4.379702 -3.326634,-6.238492 -2.059045,-3.20669 -4.709948,-5.46189 -7.780952,-6.61948 -0.776741,-0.29278 -1.577757,-0.64798 -1.780036,-0.78932 -0.523383,-0.36572 -0.564803,-1.01199 -0.09328,-1.45541 0.734244,-0.69049 2.149695,-0.3559 4.570038,1.08027 1.460096,0.86639 5.025557,3.87825 5.849434,4.9412 1.18382,1.52737 3.75535,6.17072 4.92496,8.892902 0.23704,0.5517 0.7521,2.17316 1.14458,3.60323 0.39247,1.43007 0.81863,2.70927 0.94701,2.84268 0.12838,0.13341 0.40615,0.27634 0.61727,0.31762 1.05058,0.20546 8.277894,0.48703 10.537454,0.41053 2.3222,-0.0786 5.08444,0.026 8.92067,0.33794 0.91745,0.0746 3.07147,0.20109 4.7867,0.28109 1.71523,0.08 4.29352,0.26187 5.72953,0.40415 1.43601,0.14228 3.39421,0.29655 4.35155,0.34283 0.95734,0.0463 2.13694,0.15173 2.62133,0.23435 1.6349,0.27886 1.91364,-0.0349 2.74807,-3.09355 l 0.52099,-1.9097 -0.0566,-4.63785 c -0.0554,-4.537122 -0.0667,-4.688222 -0.5223,-6.956782 -0.59749,-2.97522 -0.87908,-3.99421 -1.6586,-6.00192 -1.46968,-3.78527 -2.57162,-5.285748 -7.34568,-10.002447 -3.22587,-3.18712 -4.30366,-3.901387 -9.43435,-6.252324 -5.94909,-2.725937 -8.97896,-3.365587 -14.43262,-3.046942 -6.039984,0.352903 -7.607744,0.772754 -11.874794,3.180096 -4.140715,2.336064 -7.955404,5.960626 -13.259403,12.598547 -1.926204,2.41063 -2.479726,2.90923 -3.229677,2.90923 -0.398226,0 -0.613783,-0.12739 -1.186913,-0.70147 -1.085626,-1.08743 -2.130373,-2.4541 -2.288257,-2.99336 -0.313125,-1.069482 0.489111,-2.429525 4.152424,-7.039665 1.734296,-2.182546 3.091017,-3.549841 5.668539,-5.712723 1.784982,-1.497835 2.130276,-1.704171 6.364647,-3.80329 3.22503,-1.598757 4.86308,-2.256169 5.62389,-2.257087 0.1711,-2.07e-4 1.09436,-0.182951 2.0517,-0.406098 0.95734,-0.223147 1.98088,-0.407128 2.27452,-0.408847 0.29364,-0.0017 1.55206,-0.127498 2.79649,-0.279512 1.52507,-0.186296 3.265924,-0.286338 5.340684,-0.306916 3.59075,-0.03561 3.96444,0.02823 7.42965,1.269423 3.25825,1.16706 3.79971,1.390915 5.20835,2.153268 0.71058,0.384565 1.69694,0.825947 2.19192,0.980849 0.49498,0.154903 1.15379,0.485692 1.46402,0.735089 0.31023,0.249396 0.91651,0.621212 1.34728,0.826258 1.26283,0.601098 4.21565,3.424574 6.35501,6.076639 0.33286,0.412632 1.0039,1.210616 1.4912,1.773296 1.59001,1.835965 3.50808,4.63998 4.24464,6.205217 0.61523,1.307399 1.56563,3.978519 2.44917,6.883419 0.53419,1.75629 1.14018,5.66726 1.1387,7.349 -0.002,1.900262 -0.32355,4.772642 -0.70949,6.331342 -0.15339,0.61948 -0.35611,1.55602 -0.45048,2.08119 -0.0944,0.52517 -0.35741,1.72214 -0.58453,2.65994 -0.22712,0.93781 -0.45754,2.16547 -0.51204,2.72815 -0.11228,1.15917 -0.30795,1.68468 -0.99044,2.65995 -0.2625,0.37512 -0.78599,1.16657 -1.1633,1.75879 -0.77611,1.21815 -2.18144,2.92723 -2.50216,3.04296 -0.11725,0.0423 -0.28101,0.0131 -0.36391,-0.0648 -0.10426,-0.098 0.18937,-0.77421 0.95259,-2.19356 1.63541,-3.04137 1.57113,-3.24172 -1.20866,-3.7675 -2.48609,-0.47023 -5.87481,-0.98406 -7.69659,-1.16702 -0.83767,-0.0841 -3.01089,-0.45467 -4.82938,-0.82342 -3.04473,-0.61742 -3.51528,-0.67722 -5.94711,-0.75579 -2.04418,-0.0661 -3.46001,-0.0217 -6.26706,0.19625 -1.99446,0.15487 -4.833844,0.34918 -6.309744,0.4318 -3.0007,0.16799 -3.69401,0.29159 -3.92643,0.7 -0.0879,0.15447 -0.2166,0.99632 -0.28598,1.87079 -0.16179,2.03908 -1.06975,5.35246 -1.88802,6.88989 -1.45247,2.72901 -3.89627,5.11561 -6.516266,6.36375 -0.641521,0.30561 -2.54136,0.954 -2.795325,0.954 -0.07194,0 -0.32965,-0.187 -0.572687,-0.41555 z m 26.943671,-10.39474 c -0.34011,-0.28119 -1.97274,-3.44375 -2.49977,-4.8423 -0.12013,-0.31877 -0.27757,-0.61396 -0.34988,-0.65599 -0.0723,-0.042 -0.13148,-0.19556 -0.13148,-0.34118 0,-0.21215 0.1019,-0.26476 0.51279,-0.26476 0.72864,0 1.14897,0.31214 2.05166,1.52361 0.89594,1.20241 1.37738,1.61376 1.88872,1.61376 0.5161,0 0.81815,-0.18118 2.57642,-1.54538 l 1.59015,-1.23377 1.96361,0.37945 c 1.07998,0.2087 2.01625,0.42621 2.08059,0.48336 0.20523,0.18226 -1.2495,1.27428 -2.88491,2.16561 -4.03499,2.19915 -5.67432,3.01995 -6.03586,3.02214 -0.21494,0.001 -0.55786,-0.13575 -0.76204,-0.30455 z m -44.597391,-9.18364 c -0.697934,-0.55227 -0.90554,-1.41083 -0.990533,-4.09634 -0.137258,-4.336992 0.637398,-8.135342 1.757005,-8.615072 0.540233,-0.23147 0.905449,0.10786 1.25213,1.16339 0.256375,0.78058 0.321662,1.51718 0.449916,5.076212 0.08251,2.28972 0.110905,4.39895 0.06309,4.68717 -0.182751,1.10162 -1.032961,2.1359 -1.755775,2.1359 -0.182566,0 -0.531692,-0.15806 -0.775835,-0.35126 z"
       id="path21"
       inkscape:connector-curvature="0" />
  </g>
</svg>
